<svg xmlns="http://www.w3.org/2000/svg" width="1600" height="720" viewBox="0 0 1600 720" role="img" aria-labelledby="t d"><title id="t">Free Autonomous Engineering Setup</title><desc id="d">Hermes Supervisor orchestrates DeepSeek Harness workers, OmniRoute model routing, verification, review and human approval.</desc><defs><linearGradient id="bg" x1="0" y1="0" x2="1" y2="1"><stop stop-color="#05070b"/><stop offset="1" stop-color="#08111c"/></linearGradient><linearGradient id="g" x1="0" x2="1"><stop stop-color="#39a0ff"/><stop offset=".5" stop-color="#8b5cf6"/><stop offset="1" stop-color="#34d399"/></linearGradient><filter id="glow"><feGaussianBlur stdDeviation="6" result="b"/><feMerge><feMergeNode in="b"/><feMergeNode in="SourceGraphic"/></feMerge></filter></defs><rect width="1600" height="720" fill="url(#bg)"/><g stroke="#142231" stroke-width="1" opacity=".55"><path d="M0 80H1600M0 160H1600M0 240H1600M0 320H1600M0 400H1600M0 480H1600M0 560H1600M0 640H1600"/><path d="M100 0V720M200 0V720M300 0V720M400 0V720M500 0V720M600 0V720M700 0V720M800 0V720M900 0V720M1000 0V720M1100 0V720M1200 0V720M1300 0V720M1400 0V720M1500 0V720"/></g><text x="90" y="92" font-family="Inter,Segoe UI,Arial" font-size="54" font-weight="800" fill="#f4f7fb">FREE AUTONOMOUS ENGINEERING SETUP</text><text x="92" y="137" font-family="Inter,Segoe UI,Arial" font-size="22" fill="#9fb0c2">Hermes Supervisor · DeepSeek Harness · OmniRoute · GitHub-backed durable state</text><g font-family="Inter,Segoe UI,Arial"><rect x="80" y="222" rx="22" width="250" height="230" fill="#07111d" stroke="#2b8cff" stroke-width="2"/><text x="205" y="270" text-anchor="middle" font-size="18" fill="#60a5fa">1 · INTAKE</text><text x="205" y="326" text-anchor="middle" font-size="28" font-weight="700" fill="#fff">Work Order</text><text x="205" y="364" text-anchor="middle" font-size="17" fill="#9fb0c2">Issue · Intent · Scope</text><text x="205" y="396" text-anchor="middle" font-size="17" fill="#9fb0c2">Acceptance criteria</text><rect x="390" y="194" rx="22" width="310" height="286" fill="#0a1018" stroke="#34d399" stroke-width="3" filter="url(#glow)"/><text x="545" y="244" text-anchor="middle" font-size="18" fill="#6ee7b7">2 · SUPERVISION PLANE</text><text x="545" y="304" text-anchor="middle" font-size="32" font-weight="800" fill="#d1fae5">HERMES</text><text x="545" y="340" text-anchor="middle" font-size="24" font-weight="700" fill="#fff">SUPERVISOR</text><text x="545" y="382" text-anchor="middle" font-size="16" fill="#9fb0c2">State transitions · Dispatch</text><text x="545" y="410" text-anchor="middle" font-size="16" fill="#9fb0c2">Locks · Escalation · Governance</text><rect x="755" y="222" rx="22" width="250" height="230" fill="#0b0d18" stroke="#8b5cf6" stroke-width="2"/><text x="880" y="270" text-anchor="middle" font-size="18" fill="#a78bfa">3 · WORKER RUNTIME</text><text x="880" y="326" text-anchor="middle" font-size="29" font-weight="750" fill="#fff">DeepSeek</text><text x="880" y="361" text-anchor="middle" font-size="29" font-weight="750" fill="#fff">Harness</text><text x="880" y="402" text-anchor="middle" font-size="16" fill="#9fb0c2">Tools · Shell · Git · Tests</text><rect x="1065" y="222" rx="22" width="250" height="230" fill="#07131a" stroke="#22d3ee" stroke-width="2"/><text x="1190" y="270" text-anchor="middle" font-size="18" fill="#67e8f9">4 · INFERENCE ROUTING</text><text x="1190" y="338" text-anchor="middle" font-size="31" font-weight="800" fill="#fff">OmniRoute</text><text x="1190" y="382" text-anchor="middle" font-size="16" fill="#9fb0c2">Cost · Quota · Health</text><text x="1190" y="410" text-anchor="middle" font-size="16" fill="#9fb0c2">Latency · Fallback · Affinity</text><rect x="1370" y="222" rx="22" width="170" height="230" fill="#101018" stroke="#f59e0b" stroke-width="2"/><text x="1455" y="270" text-anchor="middle" font-size="18" fill="#fbbf24">5 · EXECUTE</text><text x="1455" y="322" text-anchor="middle" font-size="21" font-weight="700" fill="#fff">Verify</text><text x="1455" y="354" text-anchor="middle" font-size="21" font-weight="700" fill="#fff">Review</text><text x="1455" y="386" text-anchor="middle" font-size="21" font-weight="700" fill="#fff">Human Gate</text><g fill="none" stroke="url(#g)" stroke-width="5" filter="url(#glow)"><path d="M330 337H390"/><path d="M700 337H755"/><path d="M1005 337H1065"/><path d="M1315 337H1370"/></g><g fill="#93c5fd"><path d="M382 329l14 8-14 8z"/><path d="M747 329l14 8-14 8z"/><path d="M1057 329l14 8-14 8z"/><path d="M1362 329l14 8-14 8z"/></g><rect x="120" y="525" rx="18" width="1360" height="116" fill="#080d14" stroke="#243449"/><text x="160" y="568" font-size="18" font-weight="700" fill="#f4f7fb">STATE MACHINE</text><text x="160" y="605" font-size="17" fill="#93c5fd">READY</text><text x="232" y="605" font-size="17" fill="#64748b">→</text><text x="258" y="605" font-size="17" fill="#c4b5fd">IN_PROGRESS</text><text x="370" y="605" font-size="17" fill="#64748b">→</text><text x="396" y="605" font-size="17" fill="#fbbf24">READY_FOR_REVIEW</text><text x="568" y="605" font-size="17" fill="#64748b">→</text><text x="594" y="605" font-size="17" fill="#6ee7b7">PASS / CHANGES_REQUESTED</text><text x="820" y="605" font-size="17" fill="#64748b">→</text><text x="846" y="605" font-size="17" fill="#fb7185">FOUNDER_REQUIRED</text><text x="1007" y="605" font-size="17" fill="#64748b">→</text><text x="1033" y="605" font-size="17" fill="#6ee7b7">ONE-SHOT ACTION</text><text x="1184" y="605" font-size="17" fill="#64748b">→</text><text x="1210" y="605" font-size="17" fill="#60a5fa">DONE</text><text x="160" y="678" font-size="16" fill="#6ee7b7">Capability ≠ Authority</text><text x="360" y="678" font-size="16" fill="#67e8f9">Evidence before completion</text><text x="625" y="678" font-size="16" fill="#fbbf24">No duplicate dispatch</text><text x="855" y="678" font-size="16" fill="#c4b5fd">Memory ≠ Assurance</text><text x="1085" y="678" font-size="16" fill="#fb7185">No self-approval</text><text x="1290" y="678" font-size="16" fill="#9fb0c2">Vendor neutral</text></g></svg>